<svg width="70" height="71" viewBox="0 0 70 71" fill="none" xmlns="http://www.w3.org/2000/svg">
<path d="M6.82467 43.1708C8.57467 42.5291 10.383 42.2083 12.308 42.2083C16.2163 42.2083 19.6288 43.4333 22.5455 45.8833L13.3872 55.0416C10.3487 51.6187 8.10739 47.5644 6.82467 43.1708ZM45.383 29.0833C51.1288 33.3708 57.3413 34.4208 63.9913 32.2333C64.0788 32.8458 64.1663 33.9541 64.1663 35.5C64.1663 38.5042 63.4372 41.8583 62.0663 45.5625C60.6955 49.2375 59.0038 52.2125 57.0205 54.4583L38.558 36.0541L45.383 29.0833ZM25.5788 49.0333C28.6705 53.4958 29.3122 58.3666 27.4747 63.675C23.333 62.4791 19.6288 60.6125 16.5372 58.0458L25.5788 49.0333ZM35.5538 39.0583L53.958 57.5208C47.6288 63.0625 40.1913 65.3958 31.733 64.4916C32.3455 62.5666 32.6663 60.4666 32.6663 58.1916C32.6663 56.3833 32.258 54.2542 31.4413 51.8333C30.6247 49.4125 29.6622 47.4291 28.583 45.8833L35.5538 39.0583ZM25.6955 42.7916C23.0376 40.4147 19.7795 38.8108 16.2747 38.1541C12.7163 37.4833 9.30384 37.6875 6.00801 38.7958C5.92051 38.1541 5.83301 37.0458 5.83301 35.5C5.83301 32.4958 6.56217 29.1416 7.93301 25.4375C9.30384 21.7625 10.9955 18.7875 12.9788 16.5416L32.4038 36.0541L25.6955 42.7916ZM45.383 23.0458C41.4747 18.2333 40.5705 12.9833 42.6705 7.32498C44.4788 7.79165 46.5497 8.66665 48.883 10.0083C51.1872 11.3208 53.083 12.6333 54.5413 13.8875L45.383 23.0458ZM63.1747 27.8583C61.4247 28.4708 59.6163 28.7916 57.6913 28.7916C54.5122 28.7916 51.4497 27.8583 48.533 25.9333L57.5455 17.0375C60.1122 20.2458 61.9788 23.8333 63.1747 27.8583ZM35.5538 32.9041L16.0413 13.4791C22.3705 7.93748 29.808 5.60415 38.2955 6.50831C37.6538 8.43331 37.333 10.5333 37.333 12.8083C37.333 14.9083 37.7997 17.2708 38.7622 19.925C39.7247 22.55 40.833 24.65 42.2913 26.1958L35.5538 32.9041Z" fill="#FFA500"/>
</svg>
