<svg width="60" height="60" viewBox="0 0 60 60" fill="none" xmlns="http://www.w3.org/2000/svg">
<path d="M52.5 47.5V50H7.5V47.5L12.5 42.5V27.5C12.5 19.75 17.575 12.925 25 10.725V10C25 8.67392 25.5268 7.40215 26.4645 6.46447C27.4021 5.52678 28.6739 5 30 5C31.3261 5 32.5979 5.52678 33.5355 6.46447C34.4732 7.40215 35 8.67392 35 10V10.725C42.425 12.925 47.5 19.75 47.5 27.5V42.5L52.5 47.5ZM35 52.5C35 53.8261 34.4732 55.0979 33.5355 56.0355C32.5979 56.9732 31.3261 57.5 30 57.5C28.6739 57.5 27.4021 56.9732 26.4645 56.0355C25.5268 55.0979 25 53.8261 25 52.5" fill="#FFA500"/>
</svg>
