<svg width="18" height="20" viewBox="0 0 18 20" fill="none" xmlns="http://www.w3.org/2000/svg">
<path d="M17.2596 13.22C16.5227 11.9526 16.1314 10.1333 16.1314 7.9626C16.1314 6.07134 15.3801 4.25755 14.0427 2.92022C12.7054 1.5829 10.8916 0.831604 9.00036 0.831604C7.1091 0.831604 5.29531 1.5829 3.95798 2.92022C2.62066 4.25755 1.86936 6.07134 1.86936 7.9626C1.86936 10.1342 1.47971 11.9526 0.742836 13.22C0.592476 13.4785 0.512772 13.7721 0.511729 14.0711C0.510686 14.3702 0.58834 14.6643 0.736894 14.9238C0.884508 15.1835 1.09876 15.3991 1.35753 15.5483C1.61631 15.6976 1.91022 15.775 2.20894 15.7727H5.28036C5.36459 16.7012 5.79295 17.5645 6.48127 18.1932C7.1696 18.8219 8.06813 19.1705 9.00036 19.1705C9.93259 19.1705 10.8311 18.8219 11.5194 18.1932C12.2078 17.5645 12.6361 16.7012 12.7204 15.7727H15.7918C16.0901 15.7746 16.3835 15.6969 16.6417 15.5477C16.9 15.3985 17.1139 15.1831 17.2613 14.9238C17.4105 14.6646 17.4889 14.3707 17.4886 14.0717C17.4883 13.7726 17.4093 13.4789 17.2596 13.22ZM9.00036 17.131C8.60895 17.1311 8.22954 16.9959 7.92633 16.7484C7.62312 16.5009 7.41474 16.1562 7.33646 15.7727H10.6643C10.586 16.1562 10.3776 16.5009 10.0744 16.7484C9.77118 16.9959 9.39177 17.1311 9.00036 17.131ZM2.77432 13.7353C3.52562 12.2072 3.90679 10.2666 3.90679 7.9626C3.90679 6.6117 4.44343 5.31613 5.39866 4.3609C6.35389 3.40567 7.64946 2.86903 9.00036 2.86903C10.3513 2.86903 11.6468 3.40567 12.6021 4.3609C13.5573 5.31613 14.0939 6.6117 14.0939 7.9626C14.0939 10.2657 14.4742 12.2072 15.2255 13.7353H2.77432Z" fill="white"/>
</svg>
