<svg width="22" height="22" viewBox="0 0 22 22" fill="none" xmlns="http://www.w3.org/2000/svg">
<path d="M21.0612 18.938C21.343 19.2198 21.5013 19.602 21.5013 20.0005C21.5013 20.399 21.343 20.7812 21.0612 21.063C20.7794 21.3448 20.3972 21.5031 19.9987 21.5031C19.6002 21.5031 19.218 21.3448 18.9362 21.063L10.9999 13.1242L3.0612 21.0605C2.7794 21.3423 2.39721 21.5006 1.9987 21.5006C1.60018 21.5006 1.21799 21.3423 0.936196 21.0605C0.654403 20.7787 0.496094 20.3965 0.496094 19.998C0.496094 19.5995 0.654403 19.2173 0.936196 18.9355L8.87495 10.9992L0.938695 3.06049C0.656903 2.7787 0.498594 2.39651 0.498594 1.99799C0.498594 1.59948 0.656903 1.21729 0.938695 0.935493C1.22049 0.6537 1.60268 0.49539 2.0012 0.49539C2.39971 0.49539 2.7819 0.6537 3.0637 0.935493L10.9999 8.87424L18.9387 0.934242C19.2205 0.65245 19.6027 0.494141 20.0012 0.494141C20.3997 0.494141 20.7819 0.65245 21.0637 0.934242C21.3455 1.21603 21.5038 1.59823 21.5038 1.99674C21.5038 2.39526 21.3455 2.77745 21.0637 3.05924L13.1249 10.9992L21.0612 18.938Z" fill="white"/>
</svg>
