<svg width="70" height="70" viewBox="0 0 70 70" fill="none" xmlns="http://www.w3.org/2000/svg">
<path fill-rule="evenodd" clip-rule="evenodd" d="M35 70C26.425 67.9 0 51.45 0 21.875C0 17.2838 1.28406 12.809 3.67029 9.08446C6.05652 5.3599 9.42395 2.57441 13.2956 1.12255C17.1672 -0.329305 21.3467 -0.373925 25.2421 0.995016C29.1376 2.36396 32.5514 5.07706 35 8.75C37.4486 5.07706 40.8624 2.36396 44.7579 0.995016C48.6533 -0.373925 52.8328 -0.329305 56.7044 1.12255C60.576 2.57441 63.9435 5.3599 66.3297 9.08446C68.7159 12.809 70 17.2838 70 21.875C70 51.45 43.575 67.9 35 70Z" fill="#FFA500"/>
</svg>
