<svg width="90" height="90" viewBox="0 0 90 90" fill="none" xmlns="http://www.w3.org/2000/svg">
<path d="M26.2422 15V41.25L44.9922 31.875L63.7422 41.25V15H74.9922C75.9867 15 76.9406 15.3951 77.6438 16.0984C78.3471 16.8016 78.7422 17.7554 78.7422 18.75V78.75C78.7422 79.7446 78.3471 80.6984 77.6438 81.4017C76.9406 82.1049 75.9867 82.5 74.9922 82.5H14.9922C13.9976 82.5 13.0438 82.1049 12.3405 81.4017C11.6373 80.6984 11.2422 79.7446 11.2422 78.75V18.75C11.2422 17.7554 11.6373 16.8016 12.3405 16.0984C13.0438 15.3951 13.9976 15 14.9922 15H26.2422ZM44.9922 30L28.1172 11.25H61.8672L44.9922 30ZM48.7422 42.135L44.9922 40.26L41.2422 42.135V75H48.7422V42.135ZM56.2422 52.5V60H71.2422V52.5H56.2422Z" fill="#FFA500"/>
</svg>
