<svg width="60" height="60" viewBox="0 0 60 60" fill="none" xmlns="http://www.w3.org/2000/svg">
<g clip-path="url(#clip0_760_8248)">
<path fill-rule="evenodd" clip-rule="evenodd" d="M30 10C23.0325 10 16.8425 13.1425 12.435 17.0325C10.225 18.985 8.4 21.175 7.115 23.36C5.85 25.5025 5 27.825 5 30C5 32.175 5.85 34.4975 7.115 36.64C8.4 38.8225 10.2225 41.015 12.435 42.9675C16.8425 46.8575 23.035 50 30 50C36.9675 50 43.1575 46.8575 47.565 42.9675C49.7775 41.015 51.6 38.8225 52.885 36.64C54.15 34.4975 55 32.175 55 30C55 27.825 54.15 25.5025 52.885 23.36C51.6 21.1775 49.7775 18.985 47.565 17.0325C43.1575 13.1425 36.965 10 30 10ZM35 30C35.9 30 36.7425 29.7625 37.4725 29.3475C37.6057 30.8805 37.2642 32.4174 36.4942 33.7497C35.7243 35.0819 34.5631 36.1452 33.1683 36.7951C31.7735 37.445 30.2126 37.6501 28.6972 37.3827C27.1819 37.1153 25.7854 36.3882 24.6974 35.3001C23.6093 34.2121 22.8822 32.8156 22.6148 31.3003C22.3474 29.7849 22.5525 28.224 23.2024 26.8292C23.8523 25.4344 24.9156 24.2732 26.2478 23.5033C27.5801 22.7333 29.117 22.3918 30.65 22.525C30.2165 23.2859 29.9905 24.1473 29.9945 25.023C29.9985 25.8987 30.2325 26.758 30.673 27.5149C31.1134 28.2717 31.7449 28.8997 32.5043 29.3358C33.2637 29.7719 34.1243 30.001 35 30Z" fill="#FFA500"/>
</g>
<defs>
<clipPath id="clip0_760_8248">
<rect width="60" height="60" fill="white"/>
</clipPath>
</defs>
</svg>
