<svg width="1361" height="360" viewBox="0 0 1361 360" fill="none" xmlns="http://www.w3.org/2000/svg">
<path d="M30.2773 56.7715H1V359H1360V110.95H1189.13L1173.16 122.635L1155.06 174.157H1093.84L1078.41 110.95H1062.97L1044.87 49.3353L1029.96 42.4303H967.152L951.714 54.6469L903.274 49.3353C897.773 60.1355 886.453 83.2231 885.175 89.1721C883.898 95.1211 876.126 65.093 872.4 49.3353L854.833 105.638L838.864 110.95L826.62 30.7448L807.457 1H538.638L506.699 122.635H458.259L439.628 136.445H408.753L393.848 38.7122L378.411 49.3353L342.746 46.1484L329.438 38.7122L312.937 49.3353L297.499 38.7122H202.747L185.713 46.1484L171.873 97.6706L154.839 49.3353H138.87L123.432 56.7715L107.463 49.3353H75.5241L60.6193 61.0208L30.2773 56.7715Z" fill="url(#paint0_linear_1113_14647)" stroke="black"/>
<defs>
<linearGradient id="paint0_linear_1113_14647" x1="680.5" y1="1" x2="680.5" y2="456.733" gradientUnits="userSpaceOnUse">
<stop stop-color="#FFA500" stop-opacity="0.77"/>
<stop offset="0.655" stop-color="#FFA500" stop-opacity="0"/>
</linearGradient>
</defs>
</svg>
